<svg xmlns="http://www.w3.org/2000/svg" viewBox="0 0 900 620" font-family="-apple-system,BlinkMacSystemFont,'Segoe UI',Roboto,sans-serif">
  <defs>
    <marker id="arrow" markerWidth="8" markerHeight="6" refX="8" refY="3" orient="auto">
      <path d="M0,0 L8,3 L0,6" fill="none" stroke="#8b949e" stroke-width="1"/>
    </marker>
  </defs>

  <!-- Background -->
  <rect width="900" height="620" rx="12" fill="#0d1117"/>

  <!-- Title -->
  <text x="450" y="36" text-anchor="middle" fill="#f0dbb8" font-size="16" font-weight="600">V2 Telemetry Wiring — Shit of Theseus</text>

  <!-- ===== PI 5 (centre) ===== -->
  <rect x="340" y="240" width="220" height="120" rx="8" fill="#161b22" stroke="#c06000" stroke-width="2"/>
  <text x="450" y="272" text-anchor="middle" fill="#c06000" font-size="14" font-weight="700">Raspberry Pi 5</text>
  <text x="450" y="292" text-anchor="middle" fill="#8b949e" font-size="10">Proto Board HAT</text>
  <text x="450" y="310" text-anchor="middle" fill="#8b949e" font-size="10">NVMe SSD (via HAT)</text>
  <text x="450" y="328" text-anchor="middle" fill="#8b949e" font-size="10">/var/lib/shitbox → SQLite + captures</text>
  <text x="450" y="346" text-anchor="middle" fill="#6e7681" font-size="9">shitbox-telemetry.service</text>

  <!-- ===== I2C BUS (left column) ===== -->
  <!-- Bus label -->
  <text x="148" y="74" text-anchor="middle" fill="#1f6feb" font-size="11" font-weight="600">I2C Bus (bus 1)</text>

  <!-- TCA4307 buffer -->
  <rect x="78" y="86" width="140" height="40" rx="6" fill="#161b22" stroke="#1f6feb" stroke-width="1.5"/>
  <text x="148" y="103" text-anchor="middle" fill="#1f6feb" font-size="10" font-weight="600">TCA4307</text>
  <text x="148" y="117" text-anchor="middle" fill="#8b949e" font-size="9">I2C bus buffer</text>

  <!-- Line from Pi to TCA4307 -->
  <path d="M340,280 L240,280 L240,126 L218,126" fill="none" stroke="#1f6feb" stroke-width="1.5" stroke-dasharray="4,3"/>
  <text x="252" y="200" fill="#1f6feb" font-size="8" transform="rotate(-90,252,200)">SDA/SCL</text>

  <!-- Qwiic chain sensors -->
  <!-- LSM6DSOX -->
  <rect x="28" y="150" width="140" height="44" rx="6" fill="#161b22" stroke="#2a1f0e" stroke-width="1"/>
  <text x="98" y="170" text-anchor="middle" fill="#f0dbb8" font-size="10" font-weight="600">LSM6DSOX</text>
  <text x="98" y="184" text-anchor="middle" fill="#8b949e" font-size="9">Accel + Gyro · 50 Hz</text>
  <line x1="148" y1="126" x2="148" y2="150" stroke="#1f6feb" stroke-width="1.5"/>

  <!-- LIS3MDL -->
  <rect x="28" y="210" width="140" height="44" rx="6" fill="#161b22" stroke="#2a1f0e" stroke-width="1"/>
  <text x="98" y="230" text-anchor="middle" fill="#f0dbb8" font-size="10" font-weight="600">LIS3MDL</text>
  <text x="98" y="244" text-anchor="middle" fill="#8b949e" font-size="9">Magnetometer</text>
  <line x1="98" y1="194" x2="98" y2="210" stroke="#1f6feb" stroke-width="1.5"/>

  <!-- BME690 -->
  <rect x="28" y="270" width="140" height="44" rx="6" fill="#161b22" stroke="#2a1f0e" stroke-width="1"/>
  <text x="98" y="290" text-anchor="middle" fill="#f0dbb8" font-size="10" font-weight="600">BME690</text>
  <text x="98" y="304" text-anchor="middle" fill="#8b949e" font-size="9">Temp / Humidity / VOC</text>
  <line x1="98" y1="254" x2="98" y2="270" stroke="#1f6feb" stroke-width="1.5"/>

  <!-- INA226 -->
  <rect x="28" y="330" width="140" height="44" rx="6" fill="#161b22" stroke="#2a1f0e" stroke-width="1"/>
  <text x="98" y="350" text-anchor="middle" fill="#f0dbb8" font-size="10" font-weight="600">INA226</text>
  <text x="98" y="364" text-anchor="middle" fill="#8b949e" font-size="9">Power monitor</text>
  <line x1="98" y1="314" x2="98" y2="330" stroke="#1f6feb" stroke-width="1.5"/>

  <!-- VEML7700 -->
  <rect x="28" y="390" width="140" height="44" rx="6" fill="#161b22" stroke="#2a1f0e" stroke-width="1"/>
  <text x="98" y="410" text-anchor="middle" fill="#f0dbb8" font-size="10" font-weight="600">VEML7700</text>
  <text x="98" y="424" text-anchor="middle" fill="#8b949e" font-size="9">Ambient light</text>
  <line x1="98" y1="374" x2="98" y2="390" stroke="#1f6feb" stroke-width="1.5"/>

  <!-- Piezo buzzer -->
  <rect x="28" y="450" width="140" height="44" rx="6" fill="#161b22" stroke="#2a1f0e" stroke-width="1"/>
  <text x="98" y="470" text-anchor="middle" fill="#f0dbb8" font-size="10" font-weight="600">Piezo Buzzer</text>
  <text x="98" y="484" text-anchor="middle" fill="#8b949e" font-size="9">I2C 0x5C · capture chirp</text>
  <line x1="98" y1="434" x2="98" y2="450" stroke="#1f6feb" stroke-width="1.5"/>

  <!-- Qwiic chain label -->
  <text x="18" y="155" fill="#1f6feb" font-size="8" transform="rotate(-90,18,260)">Qwiic chain (daisy-chained)</text>

  <!-- ===== USB (right column) ===== -->
  <text x="752" y="154" text-anchor="middle" fill="#2ea043" font-size="11" font-weight="600">USB</text>

  <!-- Front camera -->
  <rect x="672" y="168" width="160" height="52" rx="6" fill="#161b22" stroke="#2a1f0e" stroke-width="1"/>
  <text x="752" y="188" text-anchor="middle" fill="#f0dbb8" font-size="10" font-weight="600">ELP IMX317 (Front)</text>
  <text x="752" y="202" text-anchor="middle" fill="#8b949e" font-size="9">/dev/camera-front · audio</text>
  <text x="752" y="214" text-anchor="middle" fill="#da3633" font-size="8">PiP primary</text>

  <!-- Cabin camera -->
  <rect x="672" y="234" width="160" height="52" rx="6" fill="#161b22" stroke="#2a1f0e" stroke-width="1"/>
  <text x="752" y="254" text-anchor="middle" fill="#f0dbb8" font-size="10" font-weight="600">Brio 100 (Cabin)</text>
  <text x="752" y="268" text-anchor="middle" fill="#8b949e" font-size="9">/dev/camera-cabin · video only</text>
  <text x="752" y="280" text-anchor="middle" fill="#d29922" font-size="8">PiP overlay</text>

  <!-- USB lines to Pi -->
  <path d="M560,270 L630,270 L630,194 L672,194" fill="none" stroke="#2ea043" stroke-width="1.5"/>
  <path d="M560,280 L640,280 L640,260 L672,260" fill="none" stroke="#2ea043" stroke-width="1.5"/>

  <!-- GPS -->
  <rect x="672" y="310" width="160" height="44" rx="6" fill="#161b22" stroke="#2a1f0e" stroke-width="1"/>
  <text x="752" y="330" text-anchor="middle" fill="#f0dbb8" font-size="10" font-weight="600">GPS Module</text>
  <text x="752" y="344" text-anchor="middle" fill="#8b949e" font-size="9">gpsd · 1 Hz · USB serial</text>
  <path d="M560,300 L650,300 L650,332 L672,332" fill="none" stroke="#2ea043" stroke-width="1.5"/>

  <!-- Display (touch USB) -->
  <rect x="672" y="370" width="160" height="44" rx="6" fill="#161b22" stroke="#2a1f0e" stroke-width="1"/>
  <text x="752" y="390" text-anchor="middle" fill="#f0dbb8" font-size="10" font-weight="600">Waveshare 7" Touch</text>
  <text x="752" y="404" text-anchor="middle" fill="#8b949e" font-size="9">USB (touch input)</text>
  <path d="M560,320 L660,320 L660,392 L672,392" fill="none" stroke="#2ea043" stroke-width="1.5"/>

  <!-- ===== GPIO (bottom) ===== -->
  <text x="450" y="420" text-anchor="middle" fill="#e0a040" font-size="11" font-weight="600">GPIO</text>

  <!-- Button -->
  <rect x="330" y="436" width="120" height="44" rx="6" fill="#161b22" stroke="#2a1f0e" stroke-width="1"/>
  <text x="390" y="456" text-anchor="middle" fill="#f0dbb8" font-size="10" font-weight="600">Big Red Button</text>
  <text x="390" y="470" text-anchor="middle" fill="#8b949e" font-size="9">GPIO 17 · 50ms debounce</text>
  <line x1="420" y1="360" x2="420" y2="436" stroke="#e0a040" stroke-width="1.5"/>

  <!-- ===== HDMI (top right) ===== -->
  <text x="680" y="90" text-anchor="middle" fill="#8957e5" font-size="11" font-weight="600">HDMI</text>

  <!-- Display HDMI -->
  <rect x="610" y="100" width="140" height="44" rx="6" fill="#161b22" stroke="#8957e5" stroke-width="1.5"/>
  <text x="680" y="120" text-anchor="middle" fill="#f0dbb8" font-size="10" font-weight="600">Waveshare 7"</text>
  <text x="680" y="134" text-anchor="middle" fill="#8b949e" font-size="9">1024×600 · kiosk dashboard</text>
  <path d="M500,240 L500,122 L610,122" fill="none" stroke="#8957e5" stroke-width="1.5"/>

  <!-- ===== Network (bottom right) ===== -->
  <text x="720" y="490" text-anchor="middle" fill="#6e7681" font-size="11" font-weight="600">Network</text>

  <!-- Ethernet to GL.iNet -->
  <rect x="610" y="500" width="140" height="44" rx="6" fill="#161b22" stroke="#2a1f0e" stroke-width="1"/>
  <text x="680" y="518" text-anchor="middle" fill="#f0dbb8" font-size="10" font-weight="600">GL-BE3600</text>
  <text x="680" y="532" text-anchor="middle" fill="#8b949e" font-size="9">Ethernet · WireGuard</text>
  <path d="M500,360 L500,518 L610,518" fill="none" stroke="#6e7681" stroke-width="1.5"/>

  <!-- Hotspot -->
  <rect x="770" y="500" width="120" height="44" rx="6" fill="#161b22" stroke="#2a1f0e" stroke-width="1"/>
  <text x="830" y="518" text-anchor="middle" fill="#f0dbb8" font-size="10" font-weight="600">Hotspot</text>
  <text x="830" y="532" text-anchor="middle" fill="#8b949e" font-size="9">External antenna</text>
  <path d="M750,522 L770,522" fill="none" stroke="#6e7681" stroke-width="1.5" stroke-dasharray="6,3"/>

  <!-- Upstream label -->
  <text x="720" y="564" text-anchor="middle" fill="#6e7681" font-size="9">→ Prometheus remote_write · rsync to NAS</text>

  <!-- ===== Sensor cluster housing (bottom left) ===== -->
  <rect x="28" y="530" width="260" height="60" rx="8" fill="#161b22" stroke="#2a1f0e" stroke-width="1" stroke-dasharray="4,2"/>
  <text x="158" y="554" text-anchor="middle" fill="#8b949e" font-size="10" font-style="italic">Sensor Cluster Housing</text>
  <text x="158" y="570" text-anchor="middle" fill="#6e7681" font-size="9">3D-printed PETG · ceiling mount · 4×2 grid</text>
  <text x="158" y="582" text-anchor="middle" fill="#6e7681" font-size="9">LSM6DSOX · LIS3MDL · BME690 · VEML7700</text>

  <!-- ===== Legend ===== -->
  <rect x="330" y="530" width="240" height="70" rx="6" fill="#0d1117" stroke="#21262d" stroke-width="1"/>
  <line x1="344" y1="550" x2="370" y2="550" stroke="#1f6feb" stroke-width="1.5"/>
  <text x="376" y="554" fill="#8b949e" font-size="9">I2C (SDA/SCL)</text>
  <line x1="344" y1="566" x2="370" y2="566" stroke="#2ea043" stroke-width="1.5"/>
  <text x="376" y="570" fill="#8b949e" font-size="9">USB</text>
  <line x1="344" y1="582" x2="370" y2="582" stroke="#8957e5" stroke-width="1.5"/>
  <text x="376" y="586" fill="#8b949e" font-size="9">HDMI</text>
  <line x1="470" y1="550" x2="496" y2="550" stroke="#e0a040" stroke-width="1.5"/>
  <text x="502" y="554" fill="#8b949e" font-size="9">GPIO</text>
  <line x1="470" y1="566" x2="496" y2="566" stroke="#6e7681" stroke-width="1.5"/>
  <text x="502" y="570" fill="#8b949e" font-size="9">Ethernet</text>
</svg>
